<svg xmlns="http://www.w3.org/2000/svg" version="1.1" xmlns:xlink="http://www.w3.org/1999/xlink" xmlns:svgjs="http://svgjs.dev/svgjs" width="1000" height="1000" viewBox="0 0 1000 1000"><rect width="1000" height="1000" fill="#000000"></rect><g transform="matrix(0.7,0,0,0.7,149.57576341392223,410.87723177738957)"><svg viewBox="0 0 396 101" data-background-color="#0b090a" preserveAspectRatio="xMidYMid meet" height="255" width="1000" xmlns="http://www.w3.org/2000/svg" xmlns:xlink="http://www.w3.org/1999/xlink"><defs></defs><g id="tight-bounds" transform="matrix(1,0,0,1,0.2399966972668608,-0.07199077310463053)"><svg viewBox="0 0 395.52 101.14397504104983" height="101.14397504104983" width="395.52"><g><svg viewBox="0 0 684.3056631834818 174.99341352517985" height="101.14397504104983" width="395.52"><g><rect width="11.419020712665324" height="151.94797122302157" x="247.47391809211138" y="11.52272115107914" fill="#ffffff" opacity="1" stroke-width="0" stroke="transparent" fill-opacity="1" class="rect-o-0" data-fill-palette-color="primary" rx="1%" id="o-0" data-palette-color="#ba181b"></rect></g><g transform="matrix(1,0,0,1,288.78566318348174,24.185052086330934)"><svg viewBox="0 0 395.52 126.62330935251798" height="126.62330935251798" width="395.52"><g><svg viewBox="0 0 395.52 126.62330935251798" height="126.62330935251798" width="395.52"><g><svg viewBox="0 0 395.52 126.62330935251798" height="126.62330935251798" width="395.52"><g transform="matrix(1,0,0,1,0,0)"><svg width="395.52" viewBox="3.200000047683716 -39.54999923706055 125.08999633789062 40.04999923706055" height="126.62330935251798" data-palette-color="#ba181b"><path d="M22.5 0.5L22.5 0.5Q18.45 0.5 14.93-1.03 11.4-2.55 8.78-5.28 6.15-8 4.67-11.65 3.2-15.3 3.2-19.55L3.2-19.55Q3.2-23.75 4.67-27.38 6.15-31 8.78-33.73 11.4-36.45 14.9-38 18.4-39.55 22.5-39.55L22.5-39.55Q26.35-39.55 29.13-38.55 31.9-37.55 34.7-35.25L34.7-35.25Q35.1-34.95 35.33-34.63 35.55-34.3 35.63-33.98 35.7-33.65 35.7-33.2L35.7-33.2Q35.7-32.25 35.02-31.63 34.35-31 33.4-30.93 32.45-30.85 31.55-31.55L31.55-31.55Q29.7-33.15 27.73-34 25.75-34.85 22.5-34.85L22.5-34.85Q19.55-34.85 16.95-33.65 14.35-32.45 12.38-30.35 10.4-28.25 9.3-25.48 8.2-22.7 8.2-19.55L8.2-19.55Q8.2-16.35 9.3-13.58 10.4-10.8 12.38-8.7 14.35-6.6 16.95-5.43 19.55-4.25 22.5-4.25L22.5-4.25Q25.05-4.25 27.33-5.13 29.6-6 31.7-7.55L31.7-7.55Q32.6-8.2 33.48-8.13 34.35-8.05 34.95-7.43 35.55-6.8 35.55-5.7L35.55-5.7Q35.55-5.2 35.35-4.73 35.15-4.25 34.75-3.85L34.75-3.85Q32.05-1.7 28.98-0.6 25.9 0.5 22.5 0.5ZM46.45 0L46.45 0Q45.35 0 44.6-0.75 43.85-1.5 43.85-2.6L43.85-2.6 43.85-36.45Q43.85-37.6 44.6-38.33 45.35-39.05 46.45-39.05L46.45-39.05Q47.6-39.05 48.32-38.33 49.05-37.6 49.05-36.45L49.05-36.45 49.05-2.6Q49.05-1.5 48.32-0.75 47.6 0 46.45 0ZM61.6 0L61.6 0Q60.5 0 59.77-0.75 59.05-1.5 59.05-2.6L59.05-2.6 59.05-36.45Q59.05-37.6 59.77-38.33 60.5-39.05 61.6-39.05L61.6-39.05Q62.8-39.05 63.6-38.1L63.6-38.1 85.4-9.1 85.4-36.45Q85.4-37.6 86.15-38.33 86.9-39.05 88-39.05L88-39.05Q89.15-39.05 89.85-38.33 90.55-37.6 90.55-36.45L90.55-36.45 90.55-2.6Q90.55-1.5 89.85-0.75 89.15 0 88 0L88 0Q87.5 0 86.92-0.23 86.35-0.45 86-0.9L86-0.9 64.2-29.9 64.2-2.6Q64.2-1.5 63.47-0.75 62.75 0 61.6 0ZM125.74 0L103.14 0Q102.04 0 101.29-0.75 100.54-1.5 100.54-2.6L100.54-2.6 100.54-36.45Q100.54-37.6 101.29-38.33 102.04-39.05 103.14-39.05L103.14-39.05 125.74-39.05Q126.89-39.05 127.59-38.38 128.29-37.7 128.29-36.6L128.29-36.6Q128.29-35.55 127.59-34.9 126.89-34.25 125.74-34.25L125.74-34.25 105.74-34.25 105.74-22.1 120.09-22.1Q121.24-22.1 121.94-21.43 122.64-20.75 122.64-19.7L122.64-19.7Q122.64-18.65 121.94-17.98 121.24-17.3 120.09-17.3L120.09-17.3 105.74-17.3 105.74-4.8 125.74-4.8Q126.89-4.8 127.59-4.15 128.29-3.5 128.29-2.45L128.29-2.45Q128.29-1.35 127.59-0.68 126.89 0 125.74 0L125.74 0Z" opacity="1" transform="matrix(1,0,0,1,0,0)" fill="#ffffff" class="undefined-text-0" data-fill-palette-color="primary" id="text-0"></path></svg></g></svg></g></svg></g></svg></g><g><svg viewBox="0 0 217.58119371340635 174.99341352517985" height="174.99341352517985" width="217.58119371340635"><g><svg xmlns="http://www.w3.org/2000/svg" xmlns:xlink="http://www.w3.org/1999/xlink" version="1.1" x="0" y="0" viewBox="0 9.78600025177002 100.0003433227539 80.42699432373047" enable-background="new 0 0 100 100" xml:space="preserve" width="217.58119371340635" height="174.99341352517985" class="icon-icon-0" data-fill-palette-color="accent" id="icon-0"><path d="M49.942 52.994c13.552-0.488 27.103-0.977 40.653-1.465-2.527-4.177-3.159-7.831-7.989-8.461-7.229-0.94-14.458-1.883-21.688-2.826-14.023-1.827-28.05-3.654-42.075-5.48C20.101 36.792 39.724 53.361 49.942 52.994z" fill="#ffffff" data-fill-palette-color="accent"></path><path d="M0 9.786c4.391 7.257 26.615 23.072 32.953 23.886 17.33 2.231 34.657 4.46 51.986 6.688-3.393-5.607-4.18-9.35-10.312-10.959-8.904-2.341-17.812-4.683-26.717-7.023C31.94 18.182 15.97 13.984 0 9.786z" fill="#ffffff" data-fill-palette-color="accent"></path><path d="M63.108 66.207c10.413-2.219 20.826-4.439 31.241-6.66-2.028-3.346-2.034-5.359-5.827-5.189-6.158 0.273-12.314 0.549-18.471 0.822-11.343 0.506-22.686 1.014-34.028 1.518C37.298 58.064 54.94 67.947 63.108 66.207z" fill="#ffffff" data-fill-palette-color="accent"></path><path d="M87.682 90.213c5.725-3.719 7.262-7.721 10.519-13.807 3.651-6.824 1.257-7.844-2.821-14.596-0.417-0.688-5.842 0.232-6.453 0.904-0.745 0.818-0.248 5.455-0.294 6.496C88.315 76.211 87.998 83.213 87.682 90.213z" fill="#ffffff" data-fill-palette-color="accent"></path><path d="M86.35 63.447c-3.795 0.809-8.604 0.191-9.572 4.229-1.373 5.736-2.746 11.475-4.12 17.211C81.904 82.678 86.028 71.582 86.35 63.447z" fill="#ffffff" data-fill-palette-color="accent"></path><path d="M74.666 66.121c-9.148 1.953-8.956 4.611-12.879 13.18C68.007 78.711 73.811 71.941 74.666 66.121z" fill="#ffffff" data-fill-palette-color="accent"></path></svg></g></svg></g></svg></g></svg><rect width="395.52" height="101.14397504104983" fill="none" stroke="none" visibility="hidden"></rect></g></svg></g></svg>